<svg data-v-423bf9ae="" xmlns="http://www.w3.org/2000/svg" viewBox="0 0 309.53325174225495 60" class="font"><!----><!----><!----><g data-v-423bf9ae="" id="1635792d-8c00-42bf-b8b5-f8116fe5cb47" fill="white" transform="matrix(5.958291572597482,0,0,5.958291572597482,-5.42204863630468,-3.3962253789031607)"><path d="M1.67 5.85C2.84 5.85 3.85 5.85 5.03 5.85C6.34 5.85 7.73 6.40 7.74 7.92C7.74 9.48 6.16 9.77 4.93 9.77L1.67 9.77ZM1.67 1.34L4.93 1.34C6.15 1.34 7.43 1.95 7.43 3.37C7.43 4.77 6.20 5.14 5.03 5.14L1.67 5.14ZM4.93 0.70C3.50 0.70 2.32 0.70 0.91 0.70L0.91 10.50C2.34 10.50 3.50 10.50 4.93 10.50C6.61 10.50 8.48 9.95 8.48 7.94C8.48 6.80 7.78 5.81 6.55 5.47C7.53 5.17 8.15 4.38 8.15 3.37C8.15 1.51 6.58 0.70 4.93 0.70ZM10.85 3.56L10.85 10.50L10.16 10.50L10.16 3.56ZM9.97 1.33C9.97 2.06 11.07 2.06 11.07 1.33C11.07 0.60 9.97 0.60 9.97 1.33ZM14.20 10.50L14.20 4.24L16.48 4.24L16.48 3.64L14.20 3.64L14.20 3.02C14.20 1.82 14.70 1.29 15.57 1.29C15.99 1.29 16.25 1.41 16.63 1.64L16.97 1.13C16.58 0.84 16.11 0.66 15.60 0.66C14.07 0.66 13.52 1.65 13.52 3.02L13.52 3.64L12.11 3.64L12.11 4.24L13.52 4.24L13.52 10.50ZM17.95 3.58L17.95 10.50L18.63 10.50L18.63 6.47C18.63 5.21 19.63 4.17 20.92 4.16C21.32 4.16 21.73 4.26 22.09 4.48L22.40 3.92C21.94 3.64 21.43 3.50 20.92 3.51C20.03 3.51 19.05 3.88 18.62 4.82L18.59 3.58ZM26.63 10.60C28.57 10.60 30.14 9.25 30.14 7.06C30.14 4.86 28.57 3.46 26.63 3.46C24.68 3.46 23.11 4.86 23.11 7.06C23.11 9.25 24.68 10.60 26.63 10.60ZM26.63 9.93C25.06 9.93 23.79 8.85 23.79 7.06C23.79 5.26 25.06 4.10 26.63 4.10C28.20 4.10 29.47 5.26 29.47 7.06C29.47 8.85 28.20 9.93 26.63 9.93ZM40.40 10.50L41.15 10.50L41.15 0.70L40.22 0.70L36.51 6.41L32.76 0.70C32.40 0.70 32.23 0.70 31.86 0.70L31.86 10.50L32.62 10.50L32.62 1.79L36.40 7.53L36.65 7.53L40.40 1.79ZM47.82 0.57C44.55 0.57 42.90 2.91 42.87 5.52C42.84 8.22 44.49 10.60 47.82 10.60C49.21 10.60 50.36 10.16 51.16 9.46L52.39 10.64L52.86 10.15L51.62 8.95C52.37 8.02 52.77 6.79 52.77 5.60C52.78 2.93 51.13 0.57 47.82 0.57ZM47.82 1.29C50.62 1.29 52.02 3.29 52.02 5.60C52.02 7.85 50.62 9.88 47.82 9.88C44.98 9.88 43.58 7.84 43.61 5.52C43.61 3.12 45.33 1.29 47.82 1.29Z"></path></g><!----><!----></svg>